<?xml version="1.0" encoding="UTF-8" standalone="no"?><svg xmlns="http://www.w3.org/2000/svg" xmlns:xlink="http://www.w3.org/1999/xlink" clip-rule="evenodd" fill="#ffffff" fill-rule="evenodd" height="202.8" preserveAspectRatio="xMidYMid meet" stroke-linejoin="round" stroke-miterlimit="2" version="1" viewBox="113.4 122.4 238.8 202.8" width="238.8" zoomAndPan="magnify"><g><g><path d="M0 0H500V500H0z" fill="none" transform="translate(.69)"/><g id="change1_1"><path d="M8852.93,17578.2L8852.93,17463.9L8969.83,17463.9C8973,17463.9 8975.95,17463.4 8978.69,17462.2C8981.42,17461.1 8982.79,17458.5 8982.79,17454.4C8982.79,17450.2 8981.2,17447.5 8978.03,17446.2C8974.85,17445 8972.12,17444.3 8969.83,17444.1L8813.25,17444.1L8813.25,17387.2L8977.23,17387.2C8992.57,17388.7 9005.27,17393 9015.32,17400.1C9025.37,17407.2 9032.51,17417.2 9036.74,17430C9040.62,17445.3 9042.21,17456.8 9041.5,17464.5C9040.8,17472.3 9039.39,17479.5 9037.27,17486.2C9035.16,17493 9029.34,17500.8 9019.82,17509.6C9010.3,17518.4 8997.6,17524.1 8981.73,17526.8L8921.69,17526.6L8921.69,17578.2L8852.93,17578.2Z" fill-rule="nonzero" stroke="#ffffff" stroke-width="3.42" transform="translate(-8698.13 -17254.7)"/></g><g id="change2_1"><path d="M8852.93,17578.2L8852.93,17463.9L8969.83,17463.9C8973,17463.9 8975.95,17463.4 8978.69,17462.2C8981.42,17461.1 8982.79,17458.5 8982.79,17454.4C8982.79,17450.2 8981.2,17447.5 8978.03,17446.2C8974.85,17445 8972.12,17444.3 8969.83,17444.1L8813.25,17444.1L8813.25,17387.2L8977.23,17387.2C8992.57,17388.7 9005.27,17393 9015.32,17400.1C9025.37,17407.2 9032.51,17417.2 9036.74,17430C9040.62,17445.3 9042.21,17456.8 9041.5,17464.5C9040.8,17472.3 9039.39,17479.5 9037.27,17486.2C9035.16,17493 9029.34,17500.8 9019.82,17509.6C9010.3,17518.4 8997.6,17524.1 8981.73,17526.8L8921.69,17526.6L8921.69,17578.2L8852.93,17578.2Z" fill="#00ff0a" fill-rule="nonzero" stroke="#ffffff" stroke-width="3.42" transform="translate(-8691.72 -17263.1)"/></g></g></g></svg>