<?xml version="1.0" encoding="UTF-8" standalone="no"?><svg xmlns="http://www.w3.org/2000/svg" xmlns:xlink="http://www.w3.org/1999/xlink" fill="#000000" height="2409.7" preserveAspectRatio="xMidYMid meet" version="1" viewBox="99.3 295.1 2801.2 2409.7" width="2801.2" zoomAndPan="magnify"><g><g id="change1_1"><path d="M140,1025.4c756.5,129,892.4,17.3,740.8-608.8c467,540.4,646.5,566.4,978.4,141.7 c20.7,500.8,193.8,550.8,943.5,272.9c-558.7,425.2-540.7,522.5,97.8,530.1c-652.7,212.9-684.7,336.2-174.7,671.8 c-584.4-106.5-626.7-0.5-230.6,577.3c-624.3-465.2-810.2-458.5-1013.4,36.7c-191.7-477.9-400.7-467.3-1139.2,57.7 c512.8-639.6,496.1-764.8-90.9-682.3C801.7,1631.9,781.2,1449,140,1025.4z" fill="#14ff00"/></g><g><g id="change2_1"><path d="M100.2,928.6c756.5,129,892.4,17.3,740.8-608.8c467,540.4,646.5,566.4,978.4,141.7 c20.7,500.8,193.8,550.8,943.5,272.9c-558.7,425.2-540.7,522.5,97.8,530.1c-652.7,212.9-684.7,336.2-174.7,671.8 c-584.4-106.5-626.7-0.5-230.6,577.3c-624.3-465.2-810.2-458.5-1013.4,36.7c-191.7-477.9-400.7-467.3-1139.2,57.7 c512.8-639.6,496.1-764.8-90.9-682.3C761.8,1535.2,741.3,1352.2,100.2,928.6z" fill="#ffffff"/></g><g id="change3_1"><path d="M99.3,928.2c6.9,1,14,1.8,21.2,2.8c7.2,1,14.5,2.2,21.3,3.2c13.8,2.1,27.7,4.3,41.5,6.3c27.7,4.2,55.4,8,83.2,11.6 c27.8,3.5,55.5,6.9,83.4,9.8c27.8,2.8,55.7,5.4,83.6,7.1c55.8,3.5,111.8,5.1,167.4,1.1c27.8-2,55.5-5.5,82.6-11.3 c6.8-1.3,13.5-3.2,20.2-4.8c1.7-0.4,3.4-0.9,5-1.4l5-1.5l5-1.5l2.5-0.7l2.5-0.8l9.8-3.4l2.4-0.8l2.4-1l4.8-1.9 c6.5-2.4,12.7-5.4,19-8.2c12.3-6.1,24.2-13,35.4-21c11-8.1,21.3-17.2,30.6-27.3l6.7-7.7c2.1-2.7,4.2-5.4,6.2-8.1 c2.2-2.7,3.9-5.6,5.8-8.4l2.8-4.3c0.9-1.4,1.7-2.9,2.6-4.4l2.6-4.4c0.8-1.5,1.8-2.9,2.5-4.5l4.6-9.2c0.8-1.5,1.4-3.1,2.1-4.7 l2-4.7l2-4.7l1.8-4.8c9.6-25.8,14.8-53.1,17.8-80.5l0.3-2.6l0.2-2.6l0.4-5.2c0.3-3.5,0.6-6.9,0.8-10.4l0.5-10.4l0.2-5.2 c0.1-1.7,0.1-3.5,0.1-5.2c0.1-6.9,0.3-13.9,0.1-20.8l-0.1-10.4c-0.1-3.5-0.3-6.9-0.4-10.4c-1.1-27.8-3.6-55.5-7-83.2 c-3.5-27.7-7.8-55.2-12.7-82.7c-5-27.5-10.5-54.8-16.4-82.1c-5.9-27.3-12.4-54.5-18.9-81.7l-6.3-26.1l17.7,20.3 c68.6,78.8,138.7,156.4,213.8,228.7c37.6,36,76.5,70.8,117.8,102.2c20.7,15.7,42,30.5,64,43.9c22.1,13.4,45,25.2,68.8,34.8 c1.5,0.6,3,1.2,4.5,1.8l4.5,1.6l9,3.3l9.1,2.9l4.6,1.4l4.6,1.2c3.1,0.8,6.2,1.7,9.2,2.5l9.3,2c3.1,0.7,6.2,1.2,9.4,1.8l4.7,0.8 l2.4,0.4c0.8,0.1,1.6,0.2,2.4,0.3l9.5,1.1c1.6,0.2,3.2,0.3,4.7,0.4l4.7,0.3l4.7,0.3c1.6,0.1,3.2,0.1,4.8,0.1 c3.2,0,6.3,0.1,9.5,0.1c12.7-0.2,25.3-1.5,37.8-3.5c12.5-2.3,24.8-5.4,36.9-9.3c3-1,6-2.1,9-3.2l4.5-1.6l4.4-1.8l8.8-3.7l8.7-4 c1.4-0.7,2.9-1.3,4.3-2l4.3-2.2l8.5-4.4l8.4-4.7l4.2-2.4l4.1-2.5l8.2-5.1c2.7-1.7,5.4-3.6,8-5.3c5.4-3.5,10.6-7.3,15.8-11 c20.9-15.1,40.6-31.9,59.6-49.5c19-17.6,37.2-36.1,54.9-55.2c17.7-19.1,34.8-38.7,51.5-58.6c16.7-20,33.1-40.3,49.1-60.8 l13.7-17.4l1,22.1c2.3,53,6.2,105.9,14.3,158c4.1,26,9.3,51.9,16.4,77.1c1.9,6.3,3.6,12.6,5.7,18.8l3.1,9.3l3.4,9.2l1.7,4.6 l1.9,4.5l3.7,9c2.8,5.9,5.3,11.9,8.4,17.6l2.2,4.3l1.1,2.2c0.4,0.7,0.8,1.4,1.2,2.1l4.8,8.4c1.6,2.8,3.5,5.4,5.2,8.2 c0.9,1.4,1.7,2.7,2.6,4.1l2.8,3.9l2.8,3.9l1.4,2l1.5,1.9l6,7.5c4.3,4.8,8.5,9.6,13.2,14l3.4,3.4c1.2,1.1,2.4,2.1,3.6,3.2l3.6,3.2 c1.2,1.1,2.4,2.1,3.7,3.1l7.6,5.9c2.6,1.8,5.3,3.6,7.9,5.4c10.7,6.9,22.1,13,34,18c11.9,4.8,24.2,8.9,36.8,12 c3.1,0.8,6.3,1.4,9.5,2.1l4.8,1c1.6,0.3,3.2,0.5,4.8,0.8l9.6,1.6l9.7,1.2c25.9,3.1,52.2,3.3,78.5,2c26.3-1.3,52.5-4.2,78.6-8.2 c26.1-4,52.1-8.9,78-14.5c25.9-5.6,51.6-12,77.3-18.7c25.7-6.7,51.2-14,76.7-21.5l19.1-5.7l19-5.9c6.4-1.9,12.7-3.9,19-6l19-6 c25.3-8.2,50.5-16.5,75.7-25.1c50.3-17.1,100.4-35,150.4-53.3l33.2-12.2l-28.1,21.3c-37.4,28.3-74.6,56.9-111.4,86 c-36.8,29.1-73.1,58.8-108.6,89.4c-17.7,15.3-35.2,30.9-52.3,46.9c-17.1,16-33.8,32.4-49.8,49.4c-16,17-31.3,34.7-44.9,53.6 c-3.4,4.7-6.6,9.5-9.8,14.4c-3.1,4.9-6,9.9-8.8,15c-5.4,10.2-10,20.8-12.8,31.8c-2.8,11-3.5,22.4-1,33.2 c2.5,10.8,8.4,20.6,16.3,28.7c7.9,8.1,17.5,14.5,27.6,19.9c10.2,5.4,20.9,9.8,31.9,13.6c22,7.6,44.8,12.9,67.8,17.1 c23,4.3,46.2,7.5,69.5,10.1c46.6,5.2,93.4,8.2,140.2,10.3c46.9,2,93.8,3.1,140.7,3.7l16.6,0.2l-15.8,5.1 c-45.8,14.9-91.4,30.3-136.7,46.6c-45.3,16.3-90.3,33.4-134.5,52.2c-22.1,9.4-44.1,19.3-65.6,29.8 c-21.6,10.5-42.9,21.7-63.5,33.9c-20.6,12.2-40.6,25.5-59,40.7c-4.6,3.8-9.1,7.7-13.5,11.8c-4.4,4-8.6,8.2-12.6,12.6 c-4.1,4.3-7.9,8.9-11.5,13.5c-3.6,4.7-7,9.5-10.1,14.6c-6.1,10.1-11,20.8-13.9,32.2c-3,11.3-4,23.1-3,34.7 c0.9,11.7,3.7,23.2,7.8,34.2c4.1,11.1,9.4,21.7,15.5,31.9c12.3,20.4,27.4,39,43.6,56.6c16.2,17.6,33.7,34.1,51.6,49.9 c18,15.8,36.6,31.1,55.5,45.8c18.9,14.8,38.2,29.1,57.7,43.2c39,28.1,78.9,55,119.2,81.3l18.5,12.1l-21.8-3.9 c-46.1-8.2-92.2-15.8-138.6-22.1c-23.2-3.1-46.4-5.9-69.6-8.2c-23.2-2.3-46.5-4-69.8-4.8c-23.3-0.8-46.5-0.8-69.6,0.9 c-11.5,0.9-23,2.2-34.3,4.1c-5.7,1-11.3,2.1-16.8,3.5c-5.6,1.3-11,2.9-16.4,4.7c-10.7,3.6-21.1,8.2-30.3,14.3 c-9.2,6.1-17.3,13.7-23.4,22.7c-6.1,9-10.1,19.3-12.2,30.1c-2.1,10.8-2.5,22.1-1.8,33.4c1.6,22.6,7.3,45,14.5,66.9 c7.3,21.9,16.3,43.3,26,64.4c19.6,42.2,42.2,83,66,123.2c47.7,80.3,99.8,158.1,152.7,235.3l26,38l-37-27.5 c-43.6-32.3-87.4-64.2-131.8-95.3c-11.1-7.8-22.3-15.5-33.4-23.2c-11.2-7.6-22.4-15.3-33.6-22.8c-22.5-15.1-45.2-29.9-68-44.4 c-22.9-14.5-46-28.5-69.4-42.1c-5.9-3.4-11.7-6.8-17.6-10.1l-17.7-9.8l-17.8-9.6c-5.9-3.2-12-6.2-18-9.3 c-24-12.2-48.5-23.6-73.3-33.8c-24.9-10.1-50.2-19.1-76-25.9l-9.7-2.4l-4.9-1.2c-1.6-0.4-3.3-0.7-4.9-1l-9.8-2 c-3.3-0.7-6.5-1.1-9.8-1.7c-6.5-1.2-13.1-1.9-19.7-2.8c-1.6-0.2-3.3-0.4-4.9-0.5l-4.9-0.4c-3.3-0.3-6.6-0.6-9.9-0.7l-9.9-0.4 c-3.3,0-6.6,0.1-9.9,0.1l-4.9,0.1l-4.9,0.3l-4.9,0.3c-1.6,0.1-3.3,0.2-4.9,0.4l-9.8,1.1c-1.6,0.2-3.2,0.4-4.9,0.7l-4.8,0.8 l-4.8,0.8l-4.8,1.1l-4.8,1.1c-1.6,0.4-3.2,0.7-4.8,1.2l-9.4,2.7c-1.6,0.4-3.1,1-4.6,1.6l-4.6,1.6c-1.5,0.6-3.1,1.1-4.6,1.7 l-4.5,1.9l-4.5,1.9l-2.3,0.9l-2.2,1.1l-8.8,4.3c-2.9,1.5-5.7,3.2-8.6,4.7c-1.4,0.8-2.9,1.5-4.3,2.4l-4.2,2.6l-4.2,2.6 c-0.7,0.4-1.4,0.9-2.1,1.3l-2,1.4l-8.1,5.6c-2.7,1.9-5.2,4-7.8,6l-3.9,3l-3.8,3.2c-2.5,2.2-5.1,4.2-7.5,6.4 c-4.8,4.5-9.8,8.9-14.4,13.7c-2.3,2.4-4.7,4.7-7,7.1l-6.7,7.3c-2.3,2.4-4.4,5-6.6,7.5c-2.1,2.5-4.3,5-6.5,7.6l-6.2,7.8l-3.1,3.9 c-1,1.3-2,2.7-3,4l-6,8c-2,2.7-3.9,5.5-5.8,8.2l-5.7,8.2l-5.5,8.4c-14.7,22.4-28.2,45.7-40.8,69.5 c-25.2,47.6-47.1,97.1-67.7,147.1l-8.8,21.4l-8.6-21.4c-11-27.4-22.7-54.6-35.2-81.2c-12.5-26.7-25.9-52.9-40.7-78.2l-5.6-9.5 c-1.8-3.2-3.9-6.2-5.8-9.3c-2-3.1-3.9-6.2-5.9-9.3l-6.1-9.1l-3-4.6l-3.2-4.5l-6.3-8.9l-6.6-8.7l-3.3-4.3 c-1.1-1.4-2.3-2.8-3.4-4.2l-6.9-8.4l-7.2-8.1c-1.2-1.4-2.4-2.7-3.6-4.1l-3.8-3.9c-2.5-2.6-5-5.3-7.6-7.8 c-10.3-10.1-21.2-19.5-32.6-28.2c-11.5-8.6-23.7-16.1-36.4-22.6c-3.2-1.6-6.4-3.2-9.6-4.7l-9.8-4.2c-0.8-0.3-1.6-0.7-2.5-1 l-2.5-0.9l-5-1.8c-1.7-0.6-3.3-1.2-5-1.8l-5.1-1.5l-5.1-1.5c-0.9-0.2-1.7-0.5-2.6-0.7l-2.6-0.6l-10.4-2.4l-10.6-1.9l-2.6-0.5 c-0.9-0.1-1.8-0.2-2.7-0.3l-5.3-0.6l-5.3-0.7c-1.8-0.2-3.6-0.3-5.4-0.4c-3.6-0.2-7.2-0.5-10.7-0.7c-7.2-0.1-14.4-0.4-21.6-0.1 c-7.2,0.1-14.4,0.7-21.6,1.2c-3.6,0.3-7.2,0.8-10.8,1.2c-3.6,0.4-7.2,0.8-10.8,1.4l-10.8,1.7c-3.6,0.6-7.1,1.4-10.7,2l-5.4,1 l-2.7,0.5l-2.7,0.6l-10.6,2.5c-28.4,6.8-56.2,16-83.7,26.4c-27.4,10.5-54.4,22.3-81,34.9c-26.6,12.6-52.9,26.2-78.8,40.3 c-26,14.1-51.7,28.7-77.1,43.8c-25.5,15.1-50.7,30.5-75.8,46.3c-50.2,31.5-99.6,64.2-148.7,97.4 c-49.1,33.3-97.7,67.2-146.1,101.5l-53.8,38.1l41.3-51.4c31.9-39.7,63.6-79.7,94.8-119.9c31.2-40.3,62-80.9,91.9-122 c29.9-41.2,59-82.9,86.2-125.8c13.6-21.4,26.7-43.2,38.9-65.3c12.2-22.1,23.6-44.7,33.2-67.9c4.8-11.6,9.1-23.3,12.8-35.2 c1.8-5.9,3.4-11.9,4.8-17.9c1.4-6,2.5-12,3.3-18.1c1.6-12.1,1.9-24.2,0-35.8c-1.8-11.6-5.9-22.6-12.6-32 c-6.6-9.4-15.6-17.2-25.8-23.4c-10.2-6.2-21.5-10.8-33.3-14.4c-11.8-3.6-23.9-6.2-36.2-8.2c-12.3-2-24.8-3.3-37.4-4.2 c-25.1-1.8-50.4-1.9-75.7-1.3c-25.3,0.7-50.7,2.2-76,4.3c-50.7,4.1-101.2,10.3-151.7,17.2l-26.9,3.7l22.1-15.7 c23.5-16.7,46.9-33.5,70-50.6c23.1-17.2,46-34.7,68.5-52.6c22.5-18,44.6-36.4,66.1-55.4c21.5-19,42.5-38.7,62.4-59.3 c19.9-20.6,38.9-42.1,56.1-64.9l3.2-4.3c1.1-1.4,2.1-2.9,3.1-4.4l6.2-8.7l1.5-2.2l1.5-2.2l2.9-4.5l2.9-4.5c1-1.5,2-3,2.8-4.5 c3.6-6.1,7.4-12.2,10.7-18.5l2.5-4.7c0.8-1.6,1.7-3.1,2.4-4.7l4.6-9.6c11.9-25.8,20.1-53.2,22.7-81.4c1.2-14.1,1.3-28.2-0.2-42.3 c-1.6-14.1-4.4-28-8.3-41.6l-3.3-10.1c-0.6-1.7-1-3.4-1.7-5l-1.9-5l-1.9-5l-1-2.5c-0.3-0.8-0.7-1.6-1.1-2.4l-4.4-9.7 c-6.1-12.8-12.8-25.5-20.5-37.6c-7.4-12.2-15.8-23.9-24.2-35.4c-2.2-2.9-4.4-5.7-6.6-8.5c-2.2-2.8-4.4-5.7-6.7-8.4l-6.9-8.3 c-2.3-2.8-4.6-5.5-7-8.2c-18.8-21.7-39-42.3-59.8-62.1c-20.9-19.8-42.5-38.9-64.5-57.4c-22.1-18.5-44.6-36.5-67.4-54.1 c-22.9-17.5-46-34.8-69.4-51.7c-23.4-16.9-46.9-33.6-70.6-50c-11.8-8.2-23.8-16.4-35.7-24.5l-9-6.1c-3.1-2.1-6.2-4.2-9.2-6.4 L99.3,928.2z M101,928.9c6.1,3.9,12.2,7.5,18.1,11.2c2.9,1.8,5.9,3.7,8.8,5.6c2.9,1.9,6,3.9,8.9,5.9c12,8,24,16,36,24.1 c23.9,16.1,47.7,32.6,71.3,49.2c23.6,16.7,46.9,33.7,70,51.1c23,17.4,45.8,35.2,68.1,53.6c22.4,18.3,44.2,37.3,65.3,57 c21.1,19.7,41.6,40.3,60.8,62c2.5,2.7,4.8,5.5,7.1,8.2l7,8.3c2.4,2.8,4.5,5.7,6.8,8.5c2.3,2.8,4.5,5.7,6.8,8.5 c8.7,11.6,17.3,23.4,25,35.8c7.9,12.2,14.9,25.1,21.3,38.2l4.5,10c0.4,0.8,0.8,1.7,1.1,2.5l1,2.6l2,5.1l2,5.1 c0.7,1.7,1.2,3.5,1.8,5.2l3.5,10.4c4.1,14.1,7.2,28.5,8.9,43.1c1.6,14.6,1.7,29.4,0.5,44.1c-2.5,29.4-10.9,58-22.9,84.7l-4.7,9.9 c-0.7,1.7-1.6,3.3-2.5,4.9l-2.6,4.9c-3.3,6.5-7.1,12.8-10.8,19.1c-0.9,1.6-1.9,3.1-2.9,4.7l-3,4.6l-3,4.6l-1.5,2.3l-1.6,2.2 l-6.2,9c-1.1,1.5-2.1,3-3.2,4.5l-3.3,4.4c-17.4,23.4-36.5,45.4-56.5,66.4c-20.1,21-41.1,41-62.7,60.3 c-21.6,19.3-43.7,38-66.2,56.2c-22.5,18.2-45.4,35.9-68.5,53.3c-23.1,17.4-46.5,34.4-69.9,51.3l-4.8-12 c50.6-7.3,101.3-13.6,152.3-18.1c25.5-2.2,51.1-3.9,76.8-4.7c25.7-0.8,51.4-0.8,77.2,0.9c12.9,0.9,25.8,2.2,38.7,4.2 c12.9,2,25.7,4.7,38.4,8.5c12.6,3.8,25.1,8.8,36.8,15.8c11.6,6.9,22.4,16.1,30.6,27.6c8.2,11.4,13.2,24.9,15.4,38.5 c2.2,13.6,1.9,27.2,0.2,40.4c-0.9,6.6-2,13.1-3.4,19.6c-1.5,6.4-3.1,12.8-5,19c-3.8,12.5-8.2,24.8-13.2,36.8 c-9.9,24-21.4,47.1-33.8,69.6c-12.4,22.6-25.6,44.6-39.2,66.3c-27.3,43.4-56.5,85.5-86.3,127c-29.9,41.5-60.6,82.3-91.8,122.8 c-31.2,40.5-62.8,80.6-94.7,120.5l-12.5-13.2c48.4-34.5,97.1-68.6,146.2-102.1c49.1-33.5,98.7-66.4,149.1-98.1 c25.2-15.9,50.6-31.4,76.2-46.7c25.6-15.3,51.5-30,77.7-44.3c26.2-14.3,52.7-28,79.7-40.8c27-12.8,54.4-24.9,82.5-35.6 c28-10.7,56.6-20.2,86-27.2l11-2.6l2.8-0.6l2.8-0.6l5.6-1.1c3.7-0.7,7.4-1.5,11.2-2.1l11.2-1.8c3.7-0.6,7.5-1,11.3-1.5 c3.8-0.4,7.5-0.9,11.3-1.2c7.6-0.5,15.2-1.2,22.8-1.3c7.6-0.4,15.3-0.1,22.9,0.1c3.8,0.2,7.7,0.5,11.5,0.8 c1.9,0.2,3.8,0.2,5.7,0.5l5.7,0.7l5.7,0.7c1,0.1,1.9,0.2,2.9,0.4l2.8,0.5l11.4,2l11.3,2.6l2.8,0.7c0.9,0.2,1.9,0.5,2.8,0.8 l5.5,1.6l5.5,1.6c1.8,0.6,3.6,1.3,5.5,1.9l5.4,2l2.7,1c0.9,0.3,1.8,0.7,2.7,1.1l10.7,4.5c3.5,1.7,6.9,3.4,10.4,5.1 c13.7,7.1,26.8,15.2,39.1,24.4c12.2,9.3,23.9,19.3,34.7,30c2.7,2.7,5.3,5.5,8,8.2l4,4.1c1.3,1.4,2.5,2.8,3.8,4.3l7.5,8.5l7.2,8.8 c1.2,1.5,2.4,2.9,3.6,4.4l3.4,4.5l6.9,9l6.6,9.2l3.3,4.6l3.1,4.7l6.3,9.4c2.1,3.2,4,6.4,6,9.6c2,3.2,4,6.4,5.9,9.6l5.7,9.7 c15.1,26,28.7,52.7,41.4,79.8c12.6,27.1,24.3,54.6,35.4,82.3l-17.4-0.1c20.8-50.4,43.1-100.3,68.8-148.6 c12.9-24.2,26.6-47.9,41.8-70.9l5.7-8.6l5.9-8.5c2-2.8,3.9-5.7,6-8.4l6.2-8.3c1-1.4,2.1-2.8,3.1-4.1l3.2-4.1l6.5-8.1 c2.2-2.7,4.5-5.3,6.7-7.9c2.3-2.6,4.5-5.3,6.9-7.8l7-7.7c2.4-2.5,4.9-5,7.3-7.4c4.8-5,10.1-9.6,15.1-14.4c2.6-2.3,5.3-4.5,8-6.8 l4-3.4l4.2-3.2c2.8-2.1,5.5-4.3,8.4-6.4l8.6-6l2.2-1.5c0.7-0.5,1.5-0.9,2.2-1.4l4.5-2.8l4.5-2.8c1.5-1,3.1-1.7,4.6-2.6 c3.1-1.7,6.1-3.4,9.3-5l9.5-4.6l2.4-1.1l2.4-1l4.9-2l4.9-2c1.6-0.6,3.3-1.2,5-1.8l5-1.7c1.7-0.6,3.3-1.2,5-1.7l10.2-2.9 c1.7-0.5,3.4-0.9,5.1-1.3l5.1-1.2l5.2-1.2l5.2-0.9l5.2-0.9c1.7-0.3,3.5-0.6,5.2-0.8l10.5-1.2c1.7-0.2,3.5-0.3,5.2-0.4l5.2-0.3 l5.2-0.3l5.2-0.1c3.5,0,7-0.1,10.5-0.1l10.5,0.4c3.5,0.1,7,0.4,10.4,0.7l5.2,0.4c1.7,0.1,3.5,0.3,5.2,0.5 c6.9,0.9,13.8,1.7,20.6,3c3.4,0.6,6.9,1.1,10.2,1.8l10.2,2.2c1.7,0.4,3.4,0.7,5.1,1.1l5,1.3l10.1,2.5c26.7,7.1,52.7,16.4,78,26.8 c25.4,10.4,50.2,22.1,74.5,34.5c6.1,3.2,12.2,6.2,18.2,9.5l18,9.7l17.9,10c6,3.3,11.8,6.8,17.7,10.2 c23.5,13.8,46.8,27.9,69.8,42.6c23,14.6,45.8,29.5,68.3,44.8c11.3,7.6,22.5,15.3,33.7,23c11.1,7.8,22.3,15.5,33.4,23.4 c44.4,31.4,88.3,63.5,131.9,96l-10.9,10.5c-26.4-38.7-52.5-77.7-78-117.1c-25.5-39.4-50.4-79.2-74.1-119.8 c-11.9-20.3-23.4-40.8-34.5-61.5c-11.1-20.8-21.7-41.8-31.5-63.3c-9.8-21.5-18.8-43.4-26.2-66c-7.3-22.6-13.2-45.9-14.7-70.2 c-0.7-12.1-0.3-24.4,2.2-36.6c2.4-12.1,7.1-24.1,14.3-34.5c7.1-10.4,16.5-19.1,26.8-25.8c10.4-6.8,21.6-11.7,33.1-15.5 c5.7-1.9,11.5-3.5,17.4-4.9c5.8-1.4,11.7-2.5,17.6-3.5c11.8-2,23.6-3.2,35.4-4c23.7-1.6,47.3-1.5,70.8-0.5 c23.5,1,47,2.9,70.4,5.3c23.4,2.4,46.7,5.4,69.9,8.6c46.5,6.6,92.7,14.5,138.8,23l-3.3,8.2c-40.2-26.6-80-53.9-119-82.2 c-19.5-14.2-38.8-28.7-57.8-43.6c-19-14.9-37.6-30.3-55.7-46.4c-18.1-16.1-35.6-32.8-51.9-50.7c-16.3-17.9-31.6-36.9-44.1-57.9 c-6.2-10.5-11.7-21.5-15.9-33c-4.2-11.5-7.1-23.7-8.1-36c-1-12.3,0.2-24.9,3.3-36.9c3.2-12,8.4-23.4,14.8-33.8 c3.2-5.3,6.7-10.3,10.5-15.1c3.8-4.8,7.7-9.5,11.9-13.9c4.2-4.5,8.5-8.8,13-12.9c4.5-4.1,9.1-8.1,13.8-12 c18.8-15.4,39.1-28.7,59.9-41c41.7-24.5,85.6-44.9,129.9-63.8c44.4-18.8,89.5-35.9,134.9-52.2c45.4-16.3,91-31.7,136.8-46.7 l0.8,5.4c-47-0.6-93.9-1.6-140.9-3.6c-46.9-2-93.9-4.9-140.7-10c-23.4-2.6-46.7-5.7-69.9-10c-23.2-4.2-46.3-9.5-68.7-17.1 c-11.2-3.9-22.3-8.3-32.8-13.9c-10.6-5.6-20.7-12.3-29.3-21c-8.6-8.6-15.3-19.6-18.2-31.7c-2.9-12.1-2.1-24.7,0.9-36.5 c2.9-11.8,7.7-22.9,13.3-33.4c2.8-5.3,5.8-10.4,9-15.5c3.2-5,6.5-10,9.9-14.8c13.8-19.3,29.1-37.3,45.1-54.6 c16-17.3,32.8-33.9,49.9-50.1c17.1-16.2,34.6-31.9,52.2-47.5c35.4-31,71.7-60.9,108.3-90.4c36.6-29.4,73.7-58.3,111-86.9l5,9.1 c-49.9,18.7-99.9,36.9-150.2,54.5c-25.1,8.8-50.4,17.3-75.7,25.7l-19,6.2c-6.3,2.1-12.7,4.1-19,6.1l-19.1,6l-19.1,5.9 c-25.5,7.7-51.1,15.3-76.9,22.2c-25.8,6.9-51.7,13.5-77.8,19.3c-26.1,5.8-52.4,11-78.8,15.2c-26.5,4.2-53.2,7.3-80,8.8 c-26.9,1.5-54,1.4-81-1.7l-10.1-1.2l-10.1-1.6c-1.7-0.3-3.4-0.5-5-0.8l-5-1c-3.3-0.7-6.7-1.3-10-2.2 c-13.3-3.2-26.4-7.4-39.1-12.5c-12.7-5.3-25-11.7-36.6-19.2c-2.9-1.9-5.7-3.8-8.6-5.8l-8.2-6.3c-1.4-1-2.7-2.2-4-3.3l-3.9-3.4 c-1.3-1.1-2.6-2.2-3.9-3.4l-3.7-3.6c-5-4.7-9.6-9.9-14.2-15l-6.5-8l-1.6-2l-1.5-2.1l-3-4.2l-3-4.2c-1-1.4-1.9-2.9-2.8-4.3 c-1.8-2.9-3.8-5.7-5.5-8.7l-5.1-8.9c-0.4-0.7-0.9-1.5-1.3-2.2l-1.2-2.3l-2.4-4.5c-3.3-6-5.9-12.3-8.8-18.4l-3.9-9.4l-1.9-4.7 l-1.8-4.8l-3.5-9.5l-3.2-9.6c-2.2-6.4-4-12.9-5.9-19.4c-7.3-26-12.6-52.4-16.9-78.9c-8.4-53.1-12.3-106.5-14.6-159.9l14.6,4.7 c-32.4,41.3-65.7,81.9-101.6,120.4c-17.9,19.3-36.4,38-55.8,56c-19.4,17.9-39.6,35.1-61.1,50.6c-5.4,3.8-10.8,7.8-16.4,11.4 c-2.8,1.8-5.5,3.7-8.3,5.5l-8.5,5.2l-4.3,2.6l-4.4,2.5l-8.7,4.9c-2.9,1.6-5.9,3.1-8.9,4.6l-4.5,2.3c-1.5,0.7-3,1.4-4.5,2.1 l-9.1,4.2l-9.3,3.8l-4.7,1.9l-4.7,1.7c-3.2,1.1-6.3,2.3-9.5,3.3c-12.8,4.1-25.9,7.4-39.2,9.7c-13.3,2.1-26.8,3.5-40.2,3.7 c-3.4,0-6.7-0.1-10.1-0.1c-1.7,0-3.4,0-5.1-0.1l-5-0.3l-5-0.3c-1.7-0.1-3.4-0.2-5-0.4l-10-1.2c-0.8-0.1-1.7-0.2-2.5-0.3l-2.5-0.4 l-5-0.9c-3.3-0.6-6.6-1.1-9.9-1.9l-9.8-2.2c-3.2-0.8-6.5-1.7-9.7-2.6l-4.8-1.3l-4.8-1.5l-9.6-3.1l-9.4-3.4l-4.7-1.7 c-1.6-0.6-3.1-1.3-4.6-1.9c-24.7-10-48.4-22.3-71-36.1c-22.6-13.8-44.3-29-65.2-45c-41.9-32-81-67.2-118.8-103.7 C974.3,481.5,904.4,403.4,836,324.1l11.3-5.8c6.5,27.3,12.8,54.6,18.6,82.1c5.8,27.5,11.2,55,16.1,82.7 c4.8,27.7,9,55.5,12.3,83.4c3.3,27.9,5.7,56,6.6,84.2c0.1,3.5,0.3,7,0.3,10.6l0.1,10.6c0.1,7.1-0.1,14.1-0.3,21.2 c-0.1,1.8,0,3.5-0.1,5.3l-0.3,5.3l-0.6,10.6c-0.2,3.5-0.6,7.1-0.9,10.6l-0.5,5.3l-0.2,2.6l-0.3,2.6c-3.3,28.1-8.8,56.2-19,82.9 l-1.9,5l-2.1,4.9l-2.1,4.9c-0.7,1.6-1.4,3.3-2.2,4.9l-4.8,9.6c-0.8,1.6-1.8,3.1-2.6,4.7l-2.7,4.6c-0.9,1.5-1.8,3.1-2.8,4.6 l-3,4.5c-2,3-3.9,6-6.2,8.8c-2.2,2.8-4.3,5.7-6.6,8.5l-7.1,8.1c-9.8,10.5-20.6,19.9-32.2,28.3c-11.7,8.2-24.1,15.3-36.9,21.6 c-6.5,2.9-12.9,5.9-19.6,8.4l-5,1.9l-2.5,1l-2.5,0.8l-10.1,3.4l-2.5,0.8l-2.6,0.7l-5.1,1.5l-5.1,1.5c-1.7,0.5-3.4,1-5.1,1.4 c-6.9,1.6-13.7,3.4-20.7,4.7c-27.7,5.6-55.7,8.9-83.8,10.7c-28.1,1.8-56.2,2.1-84.3,1.5c-28.1-0.6-56.1-2.1-84.1-4.2 c-28-2.1-55.9-5-83.7-8.1c-27.9-3.1-55.6-6.8-83.4-10.7c-27.7-4-55.4-8.1-83.1-12.7c-13.8-2.2-27.6-4.6-41.4-6.9 c-7-1.2-13.5-2.3-20.1-3.6C114.7,931.7,107.9,930.2,101,928.9z"/></g></g><g id="change4_1"><path d="M433.7,1057.9c573.7,97.8,676.8,13.1,561.8-461.7c354.2,409.8,490.3,429.6,742,107.5 c15.7,379.8,147,417.8,715.5,207c-423.7,322.5-410.1,396.3,74.2,402c-495,161.5-519.3,254.9-132.5,509.5 c-443.2-80.7-475.3-0.4-174.9,437.8c-473.4-352.8-614.4-347.7-768.5,27.9c-145.4-362.4-303.9-354.4-863.9,43.8 c388.9-485.1,376.3-580-68.9-517.4C935.5,1517.9,919.9,1379.2,433.7,1057.9z" fill="#00ff0a"/></g></g></svg>