<?xml version="1.0" encoding="UTF-8" standalone="no"?><svg xmlns="http://www.w3.org/2000/svg" xmlns:xlink="http://www.w3.org/1999/xlink" clip-rule="evenodd" fill="#ffffff" fill-rule="evenodd" height="202.8" preserveAspectRatio="xMidYMid meet" stroke-linejoin="round" stroke-miterlimit="2" version="1" viewBox="121.1 122.4 257.1 202.8" width="257.1" zoomAndPan="magnify"><g><g><path d="M0 0H500V500H0z" fill="none" transform="translate(.16)"/><g id="change1_1"><path d="M7121.61,17572.4L7121.61,17438.3L7081.94,17438.3L7081.94,17381.4L7183.77,17381.4L7225.29,17438.5L7267.08,17381.4L7329.24,17381.4L7329.24,17572.4L7267.08,17572.4L7267.08,17517.9L7227.15,17572.4L7223.71,17572.4L7183.5,17517.9L7183.77,17572.4L7121.61,17572.4Z" fill-rule="nonzero" stroke="#ffffff" stroke-width="3.42" transform="translate(-6959.13 -17248.9)"/></g><g id="change2_1"><path d="M7121.61,17572.4L7121.61,17438.3L7081.94,17438.3L7081.94,17381.4L7183.77,17381.4L7225.29,17438.5L7267.08,17381.4L7329.24,17381.4L7329.24,17572.4L7267.08,17572.4L7267.08,17517.9L7227.15,17572.4L7223.71,17572.4L7183.5,17517.9L7183.77,17572.4L7121.61,17572.4Z" fill="#00ff0a" fill-rule="nonzero" stroke="#ffffff" stroke-width="3.42" transform="translate(-6952.71 -17257.3)"/></g></g></g></svg>