<?xml version="1.0" encoding="UTF-8" standalone="no"?><svg xmlns="http://www.w3.org/2000/svg" xmlns:xlink="http://www.w3.org/1999/xlink" clip-rule="evenodd" fill="#ffffff" fill-rule="evenodd" height="206.2" preserveAspectRatio="xMidYMid meet" stroke-linejoin="round" stroke-miterlimit="2" version="1" viewBox="154.0 118.0 199.6 206.2" width="199.6" zoomAndPan="magnify"><g><g><path d="M0 0H500V500H0z" fill="none" transform="translate(.6 .4)"/><g id="change1_1"><path d="M11850.3,17353.2L11850.3,17452.6C11849.9,17466 11852.4,17475.1 11857.7,17479.9C11863,17484.6 11871.5,17486.8 11883.1,17486.5C11892.6,17486.8 11900.5,17484.4 11906.6,17479.3C11912.8,17474.2 11915.7,17465.3 11915.4,17452.6L11915.6,17353.2L11977.8,17353.2L11977.8,17465.2C11977.5,17481.1 11974.9,17493.7 11969.9,17503.2C11964.9,17512.7 11958.6,17520.6 11951,17526.9C11943.4,17533.3 11933.8,17538.2 11922.3,17541.8C11910.8,17545.3 11898,17547.2 11883.9,17547.6C11872.2,17547.3 11860.2,17545.7 11848.1,17542.7C11836,17539.8 11825.4,17535.1 11816.4,17528.8C11807.3,17522.4 11800.4,17514.3 11795.5,17504.3C11790.6,17494.4 11788.1,17481.4 11788.1,17465.3L11788.1,17353.2L11850.3,17353.2Z" fill-rule="nonzero" stroke="#ffffff" stroke-width="3.42" transform="translate(-11632.4 -17225.1)"/></g><g id="change2_1"><path d="M11850.3,17353.2L11850.3,17452.6C11849.9,17466 11852.4,17475.1 11857.7,17479.9C11863,17484.6 11871.5,17486.8 11883.1,17486.5C11892.6,17486.8 11900.5,17484.4 11906.6,17479.3C11912.8,17474.2 11915.7,17465.3 11915.4,17452.6L11915.6,17353.2L11977.8,17353.2L11977.8,17465.2C11977.5,17481.1 11974.9,17493.7 11969.9,17503.2C11964.9,17512.7 11958.6,17520.6 11951,17526.9C11943.4,17533.3 11933.8,17538.2 11922.3,17541.8C11910.8,17545.3 11898,17547.2 11883.9,17547.6C11872.2,17547.3 11860.2,17545.7 11848.1,17542.7C11836,17539.8 11825.4,17535.1 11816.4,17528.8C11807.3,17522.4 11800.4,17514.3 11795.5,17504.3C11790.6,17494.4 11788.1,17481.4 11788.1,17465.3L11788.1,17353.2L11850.3,17353.2Z" fill="#00ff0a" fill-rule="nonzero" stroke="#ffffff" stroke-width="3.42" transform="translate(-11625.9 -17233.5)"/></g></g></g></svg>