<?xml version="1.0" encoding="UTF-8" standalone="no"?><svg xmlns="http://www.w3.org/2000/svg" xmlns:xlink="http://www.w3.org/1999/xlink" fill="none" height="24" style="fill: none" viewBox="0 0 24 24" width="24"><path d="M12.358 0.5C9.30804 0.5 6.38297 1.7116 4.2263 3.86827C2.06964 6.02494 0.858032 8.95001 0.858032 12C0.858032 15.05 2.06964 17.9751 4.2263 20.1317C6.38297 22.2884 9.30804 23.5 12.358 23.5C15.408 23.5 18.3331 22.2884 20.4898 20.1317C22.6464 17.9751 23.858 15.05 23.858 12C23.858 8.95001 22.6464 6.02494 20.4898 3.86827C18.3331 1.7116 15.408 0.5 12.358 0.5Z" fill="#54d191"/><path d="M18.0793 6.825L15.9253 17.8225C15.9253 17.8225 15.8328 18.325 15.2095 18.325C14.8783 18.325 14.7075 18.1675 14.7075 18.1675L10.0419 14.296L7.75918 13.1454L4.82956 12.3663C4.82956 12.3663 4.30803 12.2156 4.30803 11.7844C4.30803 11.425 4.84451 11.2536 4.84451 11.2536L17.1012 6.38455C17.1012 6.38455 17.4755 6.24942 17.7487 6.25C17.9166 6.25 18.108 6.32188 18.108 6.5375C18.108 6.68125 18.0793 6.825 18.0793 6.825Z" fill="#000000"/><path d="M11.783 15.7404L9.81308 17.6804C9.81308 17.6804 9.72741 17.7466 9.61298 17.7494C9.57331 17.7506 9.53076 17.7443 9.48706 17.7247L10.0414 14.2948L11.783 15.7404Z" fill="#000000"/><path d="M15.7488 8.6627C15.6516 8.5362 15.4722 8.5132 15.3457 8.60923L7.75803 13.15C7.75803 13.15 8.96898 16.5379 9.15356 17.1244C9.33871 17.7115 9.48706 17.7247 9.48706 17.7247L10.0414 14.2948L15.6948 9.0652C15.8213 8.96918 15.8448 8.7892 15.7488 8.6627Z" fill="#54d191"/></svg>