<?xml version="1.0" encoding="UTF-8" standalone="no"?><svg xmlns="http://www.w3.org/2000/svg" xmlns:xlink="http://www.w3.org/1999/xlink" clip-rule="evenodd" fill="#ffffff" fill-rule="evenodd" height="202.8" preserveAspectRatio="xMidYMid meet" stroke-linejoin="round" stroke-miterlimit="2" version="1" viewBox="147.5 122.4 229.4 202.8" width="229.4" zoomAndPan="magnify"><g><g><path d="M0 0H500V500H0z" fill="none" transform="translate(.29)"/><g id="change1_1"><path d="M2507.97,17566.5L2507.97,17432.4L2468.29,17432.4L2468.29,17375.5L2671.68,17375.5L2671.68,17432.4L2570.12,17432.4L2570.12,17444.8L2612.7,17444.8L2612.7,17481.8L2570.12,17481.8L2570.12,17509.6L2687.82,17509.6L2687.82,17566.5L2507.97,17566.5Z" fill-rule="nonzero" stroke="#ffffff" stroke-width="3.42" transform="translate(-2319.13 -17243)"/></g><g id="change2_1"><path d="M2507.97,17566.5L2507.97,17432.4L2468.29,17432.4L2468.29,17375.5L2671.68,17375.5L2671.68,17432.4L2570.12,17432.4L2570.12,17444.8L2612.7,17444.8L2612.7,17481.8L2570.12,17481.8L2570.12,17509.6L2687.82,17509.6L2687.82,17566.5L2507.97,17566.5Z" fill="#00ff0a" fill-rule="nonzero" stroke="#ffffff" stroke-width="3.42" transform="translate(-2312.72 -17251.4)"/></g></g></g></svg>