<?xml version="1.0" encoding="UTF-8" standalone="no"?><svg xmlns="http://www.w3.org/2000/svg" xmlns:xlink="http://www.w3.org/1999/xlink" clip-rule="evenodd" fill="#ffffff" fill-rule="evenodd" height="203.4" preserveAspectRatio="xMidYMid meet" stroke-linejoin="round" stroke-miterlimit="2" version="1" viewBox="142.2 121.4 267.4 203.4" width="267.4" zoomAndPan="magnify"><g><g><path d="M0 0H500V500H0z" fill="none" transform="translate(.33 .4)"/><g id="change1_1"><path d="M10011.9,17556.1L10012.2,17441.9L10129.1,17441.9C10131.7,17441.9 10134.4,17441.3 10137.3,17440.2C10140.1,17439 10141.7,17436.4 10142,17432.3C10141.7,17428.1 10140,17425.3 10136.9,17424C10133.8,17422.7 10131.1,17422 10128.8,17422L10004,17422L10004,17365.2L10136.2,17365.2C10151.6,17366.5 10164.2,17370.8 10174,17378.2C10183.9,17385.6 10191.1,17395.4 10195.7,17407.8C10199.2,17426.2 10199.4,17440.4 10196.3,17450.5C10193.1,17460.5 10187.5,17468.9 10179.6,17475.6C10171.7,17482.3 10166.7,17486.1 10164.8,17487C10162.8,17488 10161.4,17489.4 10160.5,17491.3C10161.1,17494.7 10166.7,17497.3 10177.5,17499.3L10261.6,17499.3L10261.6,17556.1L10171.1,17556.1C10143.6,17556.7 10121.8,17548.2 10105.8,17530.7L10080.9,17504.6L10080.9,17556.1L10011.9,17556.1Z" fill-rule="nonzero" stroke="#ffffff" stroke-width="3.42" transform="translate(-9860.13 -17233.6)"/></g><g id="change2_1"><path d="M10011.9,17556.1L10012.2,17441.9L10129.1,17441.9C10131.7,17441.9 10134.4,17441.3 10137.3,17440.2C10140.1,17439 10141.7,17436.4 10142,17432.3C10141.7,17428.1 10140,17425.3 10136.9,17424C10133.8,17422.7 10131.1,17422 10128.8,17422L10004,17422L10004,17365.2L10136.2,17365.2C10151.6,17366.5 10164.2,17370.8 10174,17378.2C10183.9,17385.6 10191.1,17395.4 10195.7,17407.8C10199.2,17426.2 10199.4,17440.4 10196.3,17450.5C10193.1,17460.5 10187.5,17468.9 10179.6,17475.6C10171.7,17482.3 10166.7,17486.1 10164.8,17487C10162.8,17488 10161.4,17489.4 10160.5,17491.3C10161.1,17494.7 10166.7,17497.3 10177.5,17499.3L10261.6,17499.3L10261.6,17556.1L10171.1,17556.1C10143.6,17556.7 10121.8,17548.2 10105.8,17530.7L10080.9,17504.6L10080.9,17556.1L10011.9,17556.1Z" fill="#00ff0a" fill-rule="nonzero" stroke="#ffffff" stroke-width="3.42" transform="translate(-9853.72 -17242.1)"/></g></g></g></svg>