<?xml version="1.0" encoding="UTF-8" standalone="no"?><svg xmlns="http://www.w3.org/2000/svg" xmlns:xlink="http://www.w3.org/1999/xlink" clip-rule="evenodd" fill="#ffffff" fill-rule="evenodd" height="203.2" preserveAspectRatio="xMidYMid meet" stroke-linejoin="round" stroke-miterlimit="2" version="1" viewBox="123.2 122.3 260.0 203.2" width="260" zoomAndPan="magnify"><g><g><path d="M0 0H500V500H0z" fill="none" transform="translate(.03)"/><g id="change1_1"><path d="M1866.16,17628.6L1866.16,17514.3L1929.9,17514.3L1929.9,17568.8L1966.13,17568.8C1974.42,17568.8 1982.97,17566.3 1991.79,17561.2C2000.6,17556 2004.92,17546.1 2004.75,17531.3C2004.04,17516.6 1999.5,17506.8 1991.13,17501.9C1982.75,17497 1974.38,17494.5 1966,17494.5L1826.48,17494.5L1826.48,17437.6L1978.83,17437.6C1994.08,17437.6 2007.53,17439.7 2019.16,17443.7C2030.8,17447.8 2040.63,17453.2 2048.65,17460.1C2056.68,17467 2063.35,17476.3 2068.69,17488C2074.02,17499.8 2076.69,17515 2076.69,17533.8C2075.72,17551.2 2072.81,17565.9 2067.96,17578.1C2063.11,17590.2 2056.68,17599.9 2048.65,17606.9C2040.63,17614 2030.82,17619.4 2019.23,17623.3C2007.63,17627.2 1993.11,17629 1975.65,17628.6L1866.16,17628.6Z" fill-rule="nonzero" stroke="#ffffff" stroke-width="3.42" transform="translate(-1701.56 -17305.2)"/></g><g id="change2_1"><path d="M1866.16,17628.6L1866.16,17514.3L1929.9,17514.3L1929.9,17568.8L1966.13,17568.8C1974.42,17568.8 1982.97,17566.3 1991.79,17561.2C2000.6,17556 2004.92,17546.1 2004.75,17531.3C2004.04,17516.6 1999.5,17506.8 1991.13,17501.9C1982.75,17497 1974.38,17494.5 1966,17494.5L1826.48,17494.5L1826.48,17437.6L1978.83,17437.6C1994.08,17437.6 2007.53,17439.7 2019.16,17443.7C2030.8,17447.8 2040.63,17453.2 2048.65,17460.1C2056.68,17467 2063.35,17476.3 2068.69,17488C2074.02,17499.8 2076.69,17515 2076.69,17533.8C2075.72,17551.2 2072.81,17565.9 2067.96,17578.1C2063.11,17590.2 2056.68,17599.9 2048.65,17606.9C2040.63,17614 2030.82,17619.4 2019.23,17623.3C2007.63,17627.2 1993.11,17629 1975.65,17628.6L1866.16,17628.6Z" fill="#00ff0a" fill-rule="nonzero" stroke="#ffffff" stroke-width="3.42" transform="translate(-1695.14 -17313.6)"/></g></g></g></svg>