<?xml version="1.0" encoding="UTF-8" standalone="no"?><svg xmlns="http://www.w3.org/2000/svg" xmlns:xlink="http://www.w3.org/1999/xlink" clip-rule="evenodd" fill="#ffffff" fill-rule="evenodd" height="202.8" preserveAspectRatio="xMidYMid meet" stroke-linejoin="round" stroke-miterlimit="2" version="1" viewBox="121.6 122.4 234.1 202.8" width="234.1" zoomAndPan="magnify"><g><g><path d="M0 0H500V500H0z" fill="none" transform="translate(.498)"/><g id="change1_1"><path d="M123.405,17494.5L123.405,17437.6L283.683,17437.6L347.556,17628.6L275.352,17628.6L263.318,17594.2L206.586,17594.2L194.551,17628.6L126.05,17628.6L163.474,17514.3L224.042,17514.3L209.098,17555.6L261.731,17555.6L241.365,17494.5L123.405,17494.5Z" fill-rule="nonzero" stroke="#ffffff" stroke-width="3.42" transform="translate(-.127 -17305.1)"/></g><g id="change2_1"><path d="M123.405,17494.5L123.405,17437.6L283.683,17437.6L347.556,17628.6L275.352,17628.6L263.318,17594.2L206.586,17594.2L194.551,17628.6L126.05,17628.6L163.474,17514.3L224.042,17514.3L209.098,17555.6L261.731,17555.6L241.365,17494.5L123.405,17494.5Z" fill="#00ff0a" fill-rule="nonzero" stroke="#ffffff" stroke-width="3.42" transform="translate(6.285 -17313.5)"/></g></g></g></svg>